<svg width="177" height="50" viewBox="0 0 177 50" fill="none" xmlns="http://www.w3.org/2000/svg">
<path d="M20.5 6C21.163 6 21.7989 6.20545 22.2678 6.57114C22.7366 6.93684 23 7.43283 23 7.95L23 43.05C23 43.5672 22.7366 44.0632 22.2678 44.4289C21.7989 44.7946 21.163 45 20.5 45C19.837 45 19.2011 44.7946 18.7322 44.4289C18.2634 44.0632 18 43.5672 18 43.05L18 7.95C18 7.43283 18.2634 6.93684 18.7322 6.57114C19.2011 6.20545 19.837 6 20.5 6V6Z" fill="#FF6C6C"/>
<path d="M11.5 0.5C12.0967 0.5 12.669 0.737053 13.091 1.15901C13.5129 1.58097 13.75 2.15326 13.75 2.75L13.75 43.25C13.75 43.8467 13.5129 44.419 13.091 44.841C12.669 45.2629 12.0967 45.5 11.5 45.5C10.9033 45.5 10.331 45.2629 9.90901 44.841C9.48705 44.419 9.25 43.8467 9.25 43.25L9.25 2.75C9.25 2.15326 9.48705 1.58097 9.90901 1.15901C10.331 0.737053 10.9033 0.5 11.5 0.5V0.5Z" fill="#FF6C6C"/>
<path d="M4.74999 15.75C4.74999 15.1533 4.51293 14.581 4.09098 14.159C3.66902 13.7371 3.09672 13.5 2.49999 13.5C1.90325 13.5 1.33095 13.7371 0.908995 14.159C0.487038 14.581 0.249987 15.1533 0.249987 15.75L0.249985 42.75C0.249985 43.3467 0.487037 43.919 0.908993 44.341C1.33095 44.7629 1.90325 45 2.49999 45C3.09672 45 3.66902 44.7629 4.09098 44.341C4.51293 43.919 4.74999 43.3467 4.74999 42.75L4.74999 15.75Z" fill="#FF6C6C"/>
<path d="M38.8398 37.7539H36.0391V44H32.5234V26.9375H38.8633C40.8789 26.9375 42.4336 27.3867 43.5273 28.2852C44.6211 29.1836 45.168 30.4531 45.168 32.0938C45.168 33.2578 44.9141 34.2305 44.4062 35.0117C43.9062 35.7852 43.1445 36.4023 42.1211 36.8633L45.8125 43.8359V44H42.0391L38.8398 37.7539ZM36.0391 34.9062H38.875C39.7578 34.9062 40.4414 34.6836 40.9258 34.2383C41.4102 33.7852 41.6523 33.1641 41.6523 32.375C41.6523 31.5703 41.4219 30.9375 40.9609 30.4766C40.5078 30.0156 39.8086 29.7852 38.8633 29.7852H36.0391V34.9062ZM58.1172 36.6055H51.3672V41.1758H59.2891V44H47.8516V26.9375H59.2656V29.7852H51.3672V33.8516H58.1172V36.6055ZM74.8516 41.8438C74.2188 42.6016 73.3242 43.1914 72.168 43.6133C71.0117 44.0273 69.7305 44.2344 68.3242 44.2344C66.8477 44.2344 65.5508 43.9141 64.4336 43.2734C63.3242 42.625 62.4648 41.6875 61.8555 40.4609C61.2539 39.2344 60.9453 37.793 60.9297 36.1367V34.9766C60.9297 33.2734 61.2148 31.8008 61.7852 30.5586C62.3633 29.3086 63.1914 28.3555 64.2695 27.6992C65.3555 27.0352 66.625 26.7031 68.0781 26.7031C70.1016 26.7031 71.6836 27.1875 72.8242 28.1562C73.9648 29.1172 74.6406 30.5195 74.8516 32.3633H71.4297C71.2734 31.3867 70.9258 30.6719 70.3867 30.2188C69.8555 29.7656 69.1211 29.5391 68.1836 29.5391C66.9883 29.5391 66.0781 29.9883 65.4531 30.8867C64.8281 31.7852 64.5117 33.1211 64.5039 34.8945V35.9844C64.5039 37.7734 64.8438 39.125 65.5234 40.0391C66.2031 40.9531 67.1992 41.4102 68.5117 41.4102C69.832 41.4102 70.7734 41.1289 71.3359 40.5664V37.625H68.1367V35.0352H74.8516V41.8438ZM81.4492 44H77.9336V26.9375H81.4492V44ZM98.7344 35.8555C98.7344 37.5352 98.4375 39.0078 97.8438 40.2734C97.25 41.5391 96.3984 42.5156 95.2891 43.2031C94.1875 43.8906 92.9219 44.2344 91.4922 44.2344C90.0781 44.2344 88.8164 43.8945 87.707 43.2148C86.5977 42.5352 85.7383 41.5664 85.1289 40.3086C84.5195 39.043 84.2109 37.5898 84.2031 35.9492V35.1055C84.2031 33.4258 84.5039 31.9492 85.1055 30.6758C85.7148 29.3945 86.5703 28.4141 87.6719 27.7344C88.7812 27.0469 90.0469 26.7031 91.4688 26.7031C92.8906 26.7031 94.1523 27.0469 95.2539 27.7344C96.3633 28.4141 97.2188 29.3945 97.8203 30.6758C98.4297 31.9492 98.7344 33.4219 98.7344 35.0938V35.8555ZM95.1719 35.082C95.1719 33.293 94.8516 31.9336 94.2109 31.0039C93.5703 30.0742 92.6562 29.6094 91.4688 29.6094C90.2891 29.6094 89.3789 30.0703 88.7383 30.9922C88.0977 31.9062 87.7734 33.25 87.7656 35.0234V35.8555C87.7656 37.5977 88.0859 38.9492 88.7266 39.9102C89.3672 40.8711 90.2891 41.3516 91.4922 41.3516C92.6719 41.3516 93.5781 40.8906 94.2109 39.9688C94.8438 39.0391 95.1641 37.6875 95.1719 35.9141V35.082ZM115.164 44H111.648L104.805 32.7734V44H101.289V26.9375H104.805L111.66 38.1875V26.9375H115.164V44Z" fill="#959494"/>
<path d="M127.949 44H124.434V26.9375H127.949V44ZM145.094 44H141.578L134.734 32.7734V44H131.219V26.9375H134.734L141.59 38.1875V26.9375H145.094V44ZM158.43 37.0273H151.68V44H148.164V26.9375H159.273V29.7852H151.68V34.1914H158.43V37.0273ZM175.328 35.8555C175.328 37.5352 175.031 39.0078 174.438 40.2734C173.844 41.5391 172.992 42.5156 171.883 43.2031C170.781 43.8906 169.516 44.2344 168.086 44.2344C166.672 44.2344 165.41 43.8945 164.301 43.2148C163.191 42.5352 162.332 41.5664 161.723 40.3086C161.113 39.043 160.805 37.5898 160.797 35.9492V35.1055C160.797 33.4258 161.098 31.9492 161.699 30.6758C162.309 29.3945 163.164 28.4141 164.266 27.7344C165.375 27.0469 166.641 26.7031 168.062 26.7031C169.484 26.7031 170.746 27.0469 171.848 27.7344C172.957 28.4141 173.812 29.3945 174.414 30.6758C175.023 31.9492 175.328 33.4219 175.328 35.0938V35.8555ZM171.766 35.082C171.766 33.293 171.445 31.9336 170.805 31.0039C170.164 30.0742 169.25 29.6094 168.062 29.6094C166.883 29.6094 165.973 30.0703 165.332 30.9922C164.691 31.9062 164.367 33.25 164.359 35.0234V35.8555C164.359 37.5977 164.68 38.9492 165.32 39.9102C165.961 40.8711 166.883 41.3516 168.086 41.3516C169.266 41.3516 170.172 40.8906 170.805 39.9688C171.438 39.0391 171.758 37.6875 171.766 35.9141V35.082Z" fill="#FF6C6C"/>
</svg>
